<svg width="256" height="256" version="1.1" viewBox="0 0 100 100" xmlns="http://www.w3.org/2000/svg">
 <circle cx="50" cy="50" r="46" fill="#00a0c0" stroke="#111" stroke-width="4"/>
 <path id="cloud" d="m63.562 24.922a16 16 0 0 0 -15.885 10.476 14.82 14.1 0 0 0 -8.3906 -2.4785 14.82 14.1 0 0 0 -14.82 14.099 14.82 14.1 0 0 0 0.09473 1.4463 11.15 10.6 0 0 0 -0.44829 -0.02167 11.15 10.6 0 0 0 -11.15 10.599 11.15 10.6 0 0 0 11.15 10.6 11.15 10.6 0 0 0 8.8613 -4.1947h31.029a12.65 12.04 0 0 0 10.383 5.1825 12.65 12.04 0 0 0 12.65 -12.04 12.65 12.04 0 0 0 -7.8622 -11.131 16 16 0 0 0 1.3832 -6.376 16 16 0 0 0 -16 -16z"
   fill="#eee" stroke="#111" stroke-width="4" transform="translate(0,-3)"/>
</svg>
